<svg xmlns="http://www.w3.org/2000/svg" viewBox="0 0 65.1 58.3" enable-background="new 0 0 65.1 58.3"><g><circle stroke="#010101" stroke-width="6" stroke-miterlimit="10" cx="235.6" cy="871" r="85.6" fill="none"/><g fill="#010101"><rect x="184.6" y="885.9" transform="matrix(.911 -.412 .412 .911 -346.734 176.025)" width="100.9" height="13.1"/><rect x="184.6" y="885.9" transform="matrix(.936 .353 -.353 .936 330.251 -25.501)" width="100.9" height="13.1"/><path d="M256.1 848.5c0 11.5-9.3 20.8-20.8 20.8s-23.9-9.7-20.8-20.8c1.2-4.5 25.5-2.6 21.9-13.5-4.9-14.6-6.1-21.7-5.2-24.1 2.8-7 24.9 29 24.9 37.6z"/></g><circle stroke="#010101" stroke-width="1.8" stroke-miterlimit="10" cx="32.7" cy="28.6" r="25.7" fill="none"/><path fill="#010101" d="M33.5 18.6c-6.3 0-11.5-.7-11.9-1.6-.1.2-.2.4-.2.7v23.4c0 1.6 1.3 2.9 2.9 2.9h18.4c1.6 0 2.9-1.3 2.9-2.9v-23.5c0-.2 0-.4-.1-.5-1 .8-5.9 1.5-12 1.5z"/><ellipse stroke="#010101" stroke-width=".9" stroke-miterlimit="10" cx="33.4" cy="16.9" rx="11.6" ry="1.7" fill="none"/><ellipse fill="#010101" cx="33.3" cy="14.5" rx="3" ry=".5"/><ellipse fill="#010101" cx="33.3" cy="12.1" rx="4.1" ry=".7"/><rect x="30.2" y="14.5" fill="#010101" width="6.1" height="3.3"/><rect x="31" y="13" fill="#010101" width="4.5" height="2.1"/><polygon fill="#010101" points="30.6,14.2 24.1,16.1 24.1,16.8 30.6,14.9"/><rect x="24.1" y="16.1" fill="#010101" width="1.2" height="1"/><path fill="#010101" d="M36.1 13.3h-5.6c-.7 0-1.3-.6-1.3-1.3h8.2c0 .7-.6 1.3-1.3 1.3z"/></g></svg>