<svg xmlns="http://www.w3.org/2000/svg" viewBox="0 0 65.1 58.3" enable-background="new 0 0 65.1 58.3"><g><circle stroke="#010101" stroke-width="6" stroke-miterlimit="10" cx="235.6" cy="871" r="85.6" fill="none"/><g fill="#010101"><rect x="184.6" y="885.9" transform="matrix(.911 -.412 .412 .911 -346.734 176.025)" width="100.9" height="13.1"/><rect x="184.6" y="885.9" transform="matrix(.936 .353 -.353 .936 330.251 -25.501)" width="100.9" height="13.1"/><path d="M256.1 848.5c0 11.5-9.3 20.8-20.8 20.8s-23.9-9.7-20.8-20.8c1.2-4.5 25.5-2.6 21.9-13.5-4.9-14.6-6.1-21.7-5.2-24.1 2.8-7 24.9 29 24.9 37.6z"/></g><circle stroke="#010101" stroke-width="1.8" stroke-miterlimit="10" cx="33" cy="28.4" r="25.7" fill="none"/><g fill="#010101"><rect x="17.7" y="32.8" transform="matrix(.911 -.412 .412 .911 -11.41 16.627)" width="30.3" height="3.9"/><rect x="17.7" y="32.8" transform="matrix(.936 .353 -.353 .936 14.399 -9.366)" width="30.3" height="3.9"/><path d="M39.2 21.6c0 3.5-2.8 6.2-6.2 6.2s-7.2-2.9-6.2-6.2c.4-1.3 7.7-.8 6.6-4-1.5-4.4-1.8-6.5-1.5-7.2.7-2.2 7.3 8.6 7.3 11.2z"/></g></g></svg>