<svg xmlns="http://www.w3.org/2000/svg" viewBox="0 0 65.1 58.3" enable-background="new 0 0 65.1 58.3"><g><circle stroke="#010101" stroke-width="6" stroke-miterlimit="10" cx="235.6" cy="871" r="85.6" fill="none"/><g fill="#010101"><rect x="184.6" y="885.9" transform="matrix(.911 -.412 .412 .911 -346.734 176.025)" width="100.9" height="13.1"/><rect x="184.6" y="885.9" transform="matrix(.936 .353 -.353 .936 330.251 -25.501)" width="100.9" height="13.1"/><path d="M256.1 848.5c0 11.5-9.3 20.8-20.8 20.8s-23.9-9.7-20.8-20.8c1.2-4.5 25.5-2.6 21.9-13.5-4.9-14.6-6.1-21.7-5.2-24.1 2.8-7 24.9 29 24.9 37.6z"/></g><circle stroke="#010101" stroke-width="1.8" stroke-miterlimit="10" cx="32.6" cy="28.6" r="25.7" fill="none"/><path d="M28.5 14.7c-1 1-.9 2.7.1 3.9.8-.2.6-.3 2.6-.4v-4.2c-2.1-.2-2.1.1-2.7.7z" fill="none"/><path fill="#010101" d="M45.3 23.2c0-.3-.1-.6-.2-.9-3.4 1.3-7.4 2-11.5 2-4.2 0-8.3-.7-11.7-2.1-.1.3-.1.6-.1 1-.5-.2-.6-.3-.6-.3v17.5c0 3.9 2.9 6.9 6.8 6.9h10.9c3.9 0 7.3-3 7.3-6.9v-17.5c-.1 0-.4.1-.9.3zm-15.9 16.1h-1.3l-.6-1.9c-.1-.4-.2-.7-.3-1-.1-.3-.1-.6-.2-.8 0 .3-.1.5-.2.8l-.2.7-.1.4-.6 1.8h-1.4l1.8-5.1-1.7-4.9h1.3l.7 2c.3.7.4 1.3.5 1.7 0-.2.1-.4.2-.6l.2-.6.1-.4.6-2.1h1.3l-1.8 4.9 1.7 5.1zm6.4 0h-1.3l-.6-1.9c-.1-.4-.2-.7-.3-1-.1-.3-.1-.6-.2-.8 0 .3-.1.5-.2.8l-.2.7-.1.4-.6 1.8h-1.4l1.8-5.1-1.7-4.9h1.3l.7 2c.3.7.4 1.3.5 1.7 0-.2.1-.4.2-.6l.2-.6.1-.4.6-2.1h1.3l-1.9 5 1.8 5zm6.5 0h-1.3l-.6-1.9c-.1-.4-.2-.7-.3-1-.1-.3-.1-.6-.2-.8 0 .3-.1.5-.2.8l-.2.7-.1.4-.6 1.8h-1.4l1.8-5.1-1.7-4.9h1.3l.7 2c.3.7.4 1.3.5 1.7 0-.2.1-.4.2-.6l.2-.6.1-.4.6-2.1h1.3l-1.8 4.9 1.7 5.1z"/><path fill="#010101" d="M44.4 21.5c-1.3-1.6-4.3-2.8-8.3-3.2v-7.9h-1l.7-2h-4.6l.7 2h-.8v2.6c-2-.3-2.9 0-3.9.9-1.3 1.3-1.5 3.4-.5 5.1-1.9.6-3.5 1.4-4.4 2.4 3.2 1.2 7 1.9 11.1 1.9 4.2 0 7.9-.6 11-1.8zm-13.3-3.2c-2 .1-1.9.2-2.7.4-1-1.3-.9-2.9.1-3.9.6-.6.6-.9 2.6-.7v4.2z"/></g></svg>