<?xml version="1.0" encoding="utf-8"?>
<!-- Generator: Adobe Illustrator 18.1.1, SVG Export Plug-In . SVG Version: 6.00 Build 0)  -->
<svg version="1.1" xmlns="http://www.w3.org/2000/svg" xmlns:xlink="http://www.w3.org/1999/xlink" x="0px" y="0px"
	 viewBox="0 0 65.1 58.3" enable-background="new 0 0 65.1 58.3" xml:space="preserve">
<g id="Layer_1">
	<circle fill="none" stroke="#010101" stroke-width="6" stroke-miterlimit="10" cx="235.6" cy="871" r="85.6"/>
	<g>
		
			<rect x="184.6" y="885.9" transform="matrix(0.9112 -0.4119 0.4119 0.9112 -346.7341 176.0254)" fill="#010101" width="100.9" height="13.1"/>
		
			<rect x="184.6" y="885.9" transform="matrix(0.9356 0.3531 -0.3531 0.9356 330.2508 -25.5007)" fill="#010101" width="100.9" height="13.1"/>
		<path fill="#010101" d="M256.1,848.5c0,11.5-9.3,20.8-20.8,20.8s-23.9-9.7-20.8-20.8c1.2-4.5,25.5-2.6,21.9-13.5
			c-4.9-14.6-6.1-21.7-5.2-24.1C234,803.9,256.1,839.9,256.1,848.5z"/>
	</g>
	<g>
		<circle fill="none" stroke="#010101" stroke-width="1.7996" stroke-miterlimit="10" cx="32.6" cy="28.6" r="25.7"/>
		<g>
			<path fill="none" d="M28.5,14.7c-1,1-0.9,2.7,0.1,3.9c0.8-0.2,0.6-0.3,2.6-0.4V14C29.1,13.8,29.1,14.1,28.5,14.7z"/>
			<path fill="#010101" d="M45.3,23.2c0-0.3-0.1-0.6-0.2-0.9c-3.4,1.3-7.4,2-11.5,2c-4.2,0-8.3-0.7-11.7-2.1c-0.1,0.3-0.1,0.6-0.1,1
				c-0.5-0.2-0.6-0.3-0.6-0.3v17.5c0,3.9,2.9,6.9,6.8,6.9h10.9c3.9,0,7.3-3,7.3-6.9V22.9C46.1,22.9,45.8,23,45.3,23.2z M29.4,39.3
				h-1.3l-0.6-1.9c-0.1-0.4-0.2-0.7-0.3-1c-0.1-0.3-0.1-0.6-0.2-0.8c0,0.3-0.1,0.5-0.2,0.8l-0.2,0.7l-0.1,0.4l-0.6,1.8h-1.4l1.8-5.1
				l-1.7-4.9h1.3l0.7,2c0.3,0.7,0.4,1.3,0.5,1.7c0-0.2,0.1-0.4,0.2-0.6c0.1-0.2,0.1-0.4,0.2-0.6l0.1-0.4l0.6-2.1h1.3l-1.8,4.9
				L29.4,39.3z M35.8,39.3h-1.3l-0.6-1.9c-0.1-0.4-0.2-0.7-0.3-1c-0.1-0.3-0.1-0.6-0.2-0.8c0,0.3-0.1,0.5-0.2,0.8L33,37.1l-0.1,0.4
				l-0.6,1.8h-1.4l1.8-5.1L31,29.3h1.3l0.7,2c0.3,0.7,0.4,1.3,0.5,1.7c0-0.2,0.1-0.4,0.2-0.6c0.1-0.2,0.1-0.4,0.2-0.6l0.1-0.4
				l0.6-2.1h1.3L34,34.3L35.8,39.3z M42.3,39.3h-1.3l-0.6-1.9c-0.1-0.4-0.2-0.7-0.3-1c-0.1-0.3-0.1-0.6-0.2-0.8
				c0,0.3-0.1,0.5-0.2,0.8l-0.2,0.7l-0.1,0.4l-0.6,1.8h-1.4l1.8-5.1l-1.7-4.9h1.3l0.7,2c0.3,0.7,0.4,1.3,0.5,1.7
				c0-0.2,0.1-0.4,0.2-0.6c0.1-0.2,0.1-0.4,0.2-0.6l0.1-0.4l0.6-2.1h1.3l-1.8,4.9L42.3,39.3z"/>
			<path fill="#010101" d="M44.4,21.5c-1.3-1.6-4.3-2.8-8.3-3.2v-7.9h-1l0.7-2h-4.6l0.7,2h-0.8V13c-2-0.3-2.9,0-3.9,0.9
				c-1.3,1.3-1.5,3.4-0.5,5.1c-1.9,0.6-3.5,1.4-4.4,2.4c3.2,1.2,7,1.9,11.1,1.9C37.6,23.3,41.3,22.7,44.4,21.5z M31.1,18.3
				c-2,0.1-1.9,0.2-2.7,0.4c-1-1.3-0.9-2.9,0.1-3.9c0.6-0.6,0.6-0.9,2.6-0.7V18.3z"/>
		</g>
	</g>
</g>
<g id="Layer_2">
</g>
</svg>
