<?xml version="1.0" encoding="utf-8"?>
<!-- Generator: Adobe Illustrator 18.1.1, SVG Export Plug-In . SVG Version: 6.00 Build 0)  -->
<svg version="1.1" xmlns="http://www.w3.org/2000/svg" xmlns:xlink="http://www.w3.org/1999/xlink" x="0px" y="0px"
	 viewBox="0 0 65.1 58.3" enable-background="new 0 0 65.1 58.3" xml:space="preserve">
<g id="Layer_1">
	<circle fill="none" stroke="#010101" stroke-width="6" stroke-miterlimit="10" cx="235.6" cy="871" r="85.6"/>
	<g>
		
			<rect x="184.6" y="885.9" transform="matrix(0.9112 -0.4119 0.4119 0.9112 -346.7341 176.0254)" fill="#010101" width="100.9" height="13.1"/>
		
			<rect x="184.6" y="885.9" transform="matrix(0.9356 0.3531 -0.3531 0.9356 330.2508 -25.5007)" fill="#010101" width="100.9" height="13.1"/>
		<path fill="#010101" d="M256.1,848.5c0,11.5-9.3,20.8-20.8,20.8s-23.9-9.7-20.8-20.8c1.2-4.5,25.5-2.6,21.9-13.5
			c-4.9-14.6-6.1-21.7-5.2-24.1C234,803.9,256.1,839.9,256.1,848.5z"/>
	</g>
	<g>
		<circle fill="none" stroke="#010101" stroke-width="1.7996" stroke-miterlimit="10" cx="33" cy="28.4" r="25.7"/>
		<g>
			
				<rect x="17.7" y="32.8" transform="matrix(0.9112 -0.4119 0.4119 0.9112 -11.4099 16.6274)" fill="#010101" width="30.3" height="3.9"/>
			
				<rect x="17.7" y="32.8" transform="matrix(0.9356 0.3531 -0.3531 0.9356 14.3994 -9.366)" fill="#010101" width="30.3" height="3.9"/>
			<path fill="#010101" d="M39.2,21.6c0,3.5-2.8,6.2-6.2,6.2s-7.2-2.9-6.2-6.2c0.4-1.3,7.7-0.8,6.6-4c-1.5-4.4-1.8-6.5-1.5-7.2
				C32.6,8.2,39.2,19,39.2,21.6z"/>
		</g>
	</g>
</g>
<g id="Layer_2">
</g>
</svg>
