<?xml version="1.0" encoding="utf-8"?>
<!-- Generator: Adobe Illustrator 18.1.1, SVG Export Plug-In . SVG Version: 6.00 Build 0)  -->
<svg version="1.1" xmlns="http://www.w3.org/2000/svg" xmlns:xlink="http://www.w3.org/1999/xlink" x="0px" y="0px"
	 viewBox="0 0 65.1 58.3" enable-background="new 0 0 65.1 58.3" xml:space="preserve">
<g id="Layer_1">
	<g>
		<g>
			<g>
				<g>
					<path fill="#FFFFFF" d="M16.2,48l0-0.3c0.1,0,0.2,0,0.3-0.1c0.2,0,0.3-0.1,0.5-0.1l0.1-0.1c0-0.1,0-0.3,0-0.4v0l0-1.1l0-0.5
						l0-0.7l0-0.8l-0.1-1.6c0,0-0.2-0.1-0.5-0.1c-0.1,0-0.2,0-0.3-0.1l-0.1,0v-0.3l0.6,0c0.4,0,0.9,0.1,1.6,0.1c0.4,0,0.7,0,1.1,0
						l0.1,0l0.2,0l0.1,0h0.2l0.8,0c0,0,0.1,0,0.1,0c0.1,0,0.1,0,0.2,0c0,0.1,0,0.2,0,0.3l0.1,0.9c0,0.1,0,0.2,0,0.2
						c-0.1,0-0.2,0-0.2,0c-0.1,0-0.1,0-0.1,0c0,0-0.1-0.1-0.1-0.2c-0.1-0.3-0.2-0.5-0.3-0.6c-0.1-0.1-0.3-0.1-0.8-0.1l-0.6,0
						c-0.3,0-0.5,0-0.6,0c0,0-0.1,0-0.1,0c0,0.1-0.1,0.2-0.1,0.3l0,0.6l0,0.6c0,0.3,0,0.5,0,0.6c0,0,0.1,0,0.1,0l0.3,0h0.6
						c0.1,0,0.3,0,0.6,0c0.2,0,0.3,0,0.3-0.1c0.1,0,0.1-0.1,0.2-0.2s0.1-0.3,0.1-0.6c0,0,0.1,0,0.1,0c0,0,0.1,0,0.1,0
						c0,0,0.1,0,0.2,0l0,0.7c0,0.2,0,0.3,0,0.4l0,0.1c0,0,0,0.3,0,0.7c0,0,0,0.1,0,0.1c-0.1,0-0.1,0-0.1,0c0,0-0.1,0-0.2,0
						c0-0.1-0.1-0.1-0.1-0.3c-0.1-0.2-0.1-0.4-0.2-0.4C20.1,45,19.6,45,18.8,45c-0.1,0-0.2,0-0.4,0c0,0.1,0,0.3,0,0.5l0,1.4
						c0,0.3,0,0.4,0.1,0.5c0,0,0.2,0.1,0.4,0.1l0.1,0c0.1,0,0.3,0,0.4,0.1l0.1,0c0,0.1,0,0.1,0,0.2c0,0,0,0.1,0,0.2l-0.1,0l-0.1,0
						l-0.7,0c-0.1,0-0.4,0-1,0c-0.2,0-0.3,0-0.5,0c-0.2,0-0.4,0-0.4,0C16.4,48,16.3,48,16.2,48z"/>
					<path fill="#FFFFFF" d="M22.2,47.5c0.1,0,0.2-0.1,0.4-0.1c0.2,0,0.3,0,0.3,0c0.1,0,0.2,0,0.2-0.1c0-0.1,0-0.1,0-0.2l0-0.6
						l0-0.6v-0.4l0-0.5l0-0.5l0-1l0-0.5v-0.1c0-0.3,0-0.5-0.1-0.5c0,0-0.1-0.1-0.3-0.1c0,0-0.1,0-0.2-0.1c-0.1,0-0.1-0.1-0.2-0.1
						c-0.1,0-0.2-0.1-0.2-0.1c0-0.1,0-0.1,0-0.2c0,0,0-0.1,0-0.1c0,0,0.1,0,0.1,0c0.1,0,0.3,0,0.8,0l0.7,0l0.5,0c0.2,0,0.5,0,0.8,0
						c0.1,0,0.2,0,0.2,0c0,0,0.1,0,0.1,0c0,0,0,0.1,0,0.2c0,0.1,0,0.1-0.1,0.2c0,0-0.1,0-0.2,0.1l-0.6,0.1c0,0,0,0-0.1,0
						c0,0,0,0,0,0.1l0,0.1l0,0.3V43v0.1c0,0,0,0.1,0,0.3c0,0,0,0.1,0,0.1c0,0,0,0.1,0,0.3c0,0.2,0,0.4,0,0.5c0,0.2,0,0.3,0,0.6
						c0,0.1,0,0.2,0,0.3l0,2.2c0,0.1,0,0.2,0,0.2l0.4,0l0.3,0l0.3,0c0.5,0,0.9-0.1,1.2-0.2c0.2-0.1,0.4-0.2,0.4-0.3
						c0.1-0.1,0.2-0.2,0.3-0.3c0.1-0.1,0.1-0.3,0.2-0.5h0.1c0.1,0,0.2,0,0.3,0v0.1c0,0.2,0,0.6-0.1,1.2c0,0.2,0,0.4-0.1,0.4
						c-0.1,0-0.1,0-0.1,0h-0.2l-0.2,0c0,0-0.2,0-0.6,0c-0.1,0-0.4,0-0.9,0c-0.5,0-1.1,0-1.6,0l-1,0c-0.4,0-0.7,0-1,0.1h-0.1
						c0,0,0,0-0.1,0c0,0,0-0.1,0-0.1C22.2,47.7,22.2,47.6,22.2,47.5z"/>
					<path fill="#FFFFFF" d="M28.1,47.9l0-0.3c0.1,0,0.2,0,0.3-0.1c0.2,0,0.4-0.1,0.4-0.1c0.1,0,0.1-0.1,0.2-0.3l0.9-2.5l1.1-2.9
						c0.1,0,0.2,0,0.3,0h0.2l0,0.1l0.8,1.9c0.2,0.4,0.3,0.8,0.5,1.2c0.1,0.4,0.3,0.7,0.4,0.9c0.1,0.1,0.1,0.4,0.3,0.7
						c0.1,0.2,0.1,0.4,0.3,0.6c0.1,0.1,0.1,0.2,0.1,0.2c0.1,0,0.1,0.1,0.3,0.1c0.1,0,0.3,0.1,0.4,0.1c0,0.1,0,0.2,0,0.2
						c0,0,0,0.1,0,0.1c-0.2,0-0.5,0-0.8,0c-0.3,0-0.5,0-0.7,0c-0.2,0-0.4,0-0.5,0l-0.8,0l-0.2,0c0-0.1,0-0.2,0-0.3l0.5-0.1
						c0.2,0,0.2-0.1,0.3-0.1c0,0,0-0.1,0-0.1s0-0.1,0-0.1l-0.2-0.5l-0.4-0.9l-1.8,0c-0.1,0.1-0.2,0.5-0.4,1.1
						c-0.1,0.2-0.1,0.3-0.1,0.3c0,0.1,0,0.1,0.1,0.2c0.1,0.1,0.2,0.1,0.4,0.1c0,0,0.1,0,0.3,0.1c0,0.1,0,0.2,0,0.2c0,0,0,0.1,0,0.1
						c-0.2,0-0.7,0-1.4-0.1l-0.2,0C28.6,47.9,28.4,47.9,28.1,47.9L28.1,47.9z M30.3,45.3c0.7,0,1.2,0,1.3,0l0.1,0
						c-0.1-0.3-0.2-0.6-0.4-1c-0.1-0.4-0.3-0.6-0.4-0.8L30.3,45.3z"/>
					<path fill="#FFFFFF" d="M38.7,42c0,0.1,0.1,0.3,0.1,0.5c0,0.3,0.1,0.6,0.1,0.7c0,0.1,0,0.1,0,0.2l0,0l-0.3,0l-0.1,0
						c-0.1-0.4-0.3-0.7-0.4-0.8c-0.2-0.2-0.5-0.4-0.8-0.4c-0.3,0-0.5,0.1-0.7,0.2c-0.2,0.2-0.3,0.4-0.3,0.6c0,0.2,0.1,0.4,0.3,0.6
						c0.2,0.2,0.5,0.4,1.1,0.5c0.2,0.1,0.4,0.1,0.7,0.3c0.3,0.1,0.5,0.3,0.6,0.4c0.2,0.2,0.3,0.4,0.4,0.6c0.1,0.2,0.1,0.4,0.1,0.7
						c0,0.3-0.1,0.6-0.2,0.9c-0.1,0.1-0.2,0.3-0.3,0.4c-0.1,0.1-0.2,0.2-0.4,0.3c-0.2,0.1-0.4,0.2-0.6,0.3C37.6,48,37.3,48,37,48
						c-0.2,0-0.5,0-0.8-0.1l-0.6-0.2c-0.2,0-0.3-0.1-0.3-0.1c0,0,0,0,0-0.1v-0.1c0,0,0-0.2,0-0.6c0-0.2,0-0.3,0-0.4v-0.2l0.4,0
						c0.1,0.3,0.2,0.6,0.3,0.6c0.1,0.2,0.2,0.3,0.3,0.4c0.1,0.1,0.3,0.2,0.4,0.2c0.2,0.1,0.3,0.1,0.5,0.1c0.2,0,0.4,0,0.6-0.1
						s0.4-0.2,0.5-0.4c0.1-0.2,0.2-0.3,0.2-0.5c0-0.2-0.1-0.4-0.3-0.6c-0.1-0.1-0.5-0.3-1.1-0.5c-0.6-0.2-1-0.4-1.2-0.5
						c-0.2-0.2-0.4-0.4-0.5-0.6c-0.1-0.3-0.2-0.5-0.2-0.8c0-0.5,0.2-0.9,0.5-1.3c0.4-0.3,0.9-0.5,1.6-0.5c0.1,0,0.4,0,0.7,0.1
						C38.1,41.9,38.4,41.9,38.7,42z"/>
					<path fill="#FFFFFF" d="M40,47.6c0.3-0.2,0.6-0.3,0.8-0.3c0.1,0,0.1-0.1,0.1-0.2c0-0.1,0-0.3,0-0.7c0-0.1,0-0.2,0-0.3V46l0-1
						l0-0.7l0-0.2v-0.2c0,0,0-0.1,0-0.2l0-0.2l0-0.1c0-0.1,0-0.1,0-0.2c0-0.3,0-0.6-0.1-0.7c-0.1-0.1-0.3-0.2-0.6-0.2
						c-0.1,0-0.3-0.1-0.3-0.1l0-0.3c0.1,0,0.1,0,0.2,0c0.3,0,0.5,0,0.7,0c0.2,0,0.5,0,0.9,0l0.5,0c0.2,0,0.4,0,0.5,0
						c0.1,0,0.2,0,0.2,0c0,0,0.1,0,0.1,0c0,0,0,0.1,0,0.1c0,0.1,0,0.2,0,0.2c-0.2,0.1-0.4,0.1-0.6,0.2c-0.2,0-0.3,0.1-0.3,0.1
						c0,0-0.1,0.1-0.1,0.2v0.4c0,0,0,0.1,0,0.3c0,0.2,0,0.3,0,0.4c0,0,0,0.2,0,0.3v0.4l0,0.3c0,0,0,0,0,0.1c0.2-0.2,0.5-0.5,0.9-0.9
						c0.2-0.2,0.3-0.3,0.4-0.4c0,0,0.3-0.3,0.7-0.7c0.1-0.2,0.2-0.3,0.2-0.3l0,0c-0.2,0-0.3-0.1-0.4-0.1c-0.1,0-0.2,0-0.3-0.1
						c0,0,0-0.1,0-0.3l0-0.1h0.2c0.1,0,0.2,0,0.4,0c0.2,0,0.3,0,0.4,0l1.1,0c0.2,0,0.4,0,0.6-0.1l0,0.4c-0.1,0-0.2,0-0.3,0.1
						c-0.4,0.1-0.6,0.2-0.8,0.3c-0.1,0.1-0.3,0.2-0.4,0.3c-0.1,0.1-0.4,0.3-0.7,0.6c-0.5,0.4-0.8,0.7-0.9,0.8
						c0.1,0.1,0.1,0.1,0.2,0.2l0.2,0.2c0,0,0.1,0.1,0.1,0.1l1,1.1l0.8,1c0.1,0.1,0.2,0.2,0.2,0.2l0.1,0.1c0.1,0.1,0.1,0.1,0.1,0.1
						c0,0,0.1,0,0.2,0.1c0.1,0,0.2,0.1,0.4,0.2c0,0.1,0,0.1,0,0.1c0,0,0,0.1,0,0.2l-0.5,0c-0.1,0-0.2,0-0.3,0l-0.5,0l-0.1,0l-0.6,0
						c-0.1,0-0.2,0-0.5,0c-0.1,0-0.2,0-0.3,0c0,0-0.1,0-0.1,0c0,0,0-0.1,0-0.1c0,0,0-0.1,0-0.2c0.1,0,0.3-0.1,0.4-0.1
						c0.1,0,0.2,0,0.2-0.1c0,0,0.1-0.1,0.1-0.1c0,0,0-0.1,0-0.1c0-0.1-0.1-0.2-0.1-0.2c0,0-0.2-0.3-0.7-0.8l-1.2-1.3
						c0,0.1,0,0.2,0,0.4c0,0.2,0,0.4,0,0.5c0,0,0,0.2,0,0.6l0,0.4l0,0.5c0.1,0.1,0.2,0.1,0.5,0.2c0.1,0,0.2,0.1,0.4,0.1
						c0,0.1,0,0.1,0,0.1c0,0,0,0.1,0,0.1c-0.1,0-0.3,0-0.3,0c-0.1,0-0.2,0-0.2,0l-0.7,0c-0.1,0-0.2,0-0.3,0c-0.1,0-0.2,0-0.3,0
						l-0.8,0c0,0-0.2,0-0.4,0L40,47.6z"/>
				</g>
				<g>
					<path fill="#FFFFFF" d="M6.9,39.7l0-0.7c0.1,0,0.4-0.1,0.7-0.1c0.3-0.1,0.7-0.1,1-0.2l0.2-0.1c0.1-0.3,0.1-0.5,0.1-0.8v-0.1
						l0-2.3l0-1l0-1.4l0-1.7l-0.1-3.3c-0.1-0.1-0.4-0.2-1-0.3c-0.1,0-0.3-0.1-0.6-0.2L7,27.4v-0.7l1.3,0c0.8,0.1,2,0.1,3.5,0.1
						c0.8,0,1.6,0,2.4-0.1l0.2,0l0.5,0l0.2,0h0.4l1.8-0.1c0.1,0,0.2,0,0.3,0c0.1,0,0.2,0,0.4,0c0,0.2,0.1,0.4,0.1,0.6l0.1,1.9
						c0,0.2,0,0.4-0.1,0.5c-0.2,0-0.4,0-0.5,0c-0.1,0-0.2,0-0.3-0.1c0,0-0.1-0.2-0.2-0.4c-0.3-0.7-0.5-1.1-0.7-1.2
						c-0.2-0.1-0.7-0.2-1.6-0.2l-1.4,0c-0.6,0-1,0-1.4,0.1c-0.1,0-0.2,0-0.3,0.1c-0.1,0.2-0.1,0.3-0.1,0.6l0,1.2l0,1.4
						c0,0.7,0,1.1,0.1,1.3c0.1,0,0.1,0.1,0.1,0.1l0.7,0h1.2c0.3,0,0.7,0,1.2-0.1c0.4,0,0.6-0.1,0.7-0.2c0.2-0.1,0.3-0.2,0.3-0.4
						c0.1-0.2,0.1-0.6,0.2-1.2c0,0,0.1,0,0.3,0c0.1,0,0.2,0,0.2,0c0.1,0,0.2,0,0.4,0l-0.1,1.6c0,0.3,0,0.6,0,0.9l0,0.2
						c0,0.1,0,0.6,0,1.5c0,0.1,0,0.2,0,0.3c-0.1,0-0.2,0-0.3,0c-0.1,0-0.2,0-0.4-0.1c-0.1-0.1-0.1-0.3-0.2-0.5
						c-0.2-0.5-0.3-0.8-0.5-0.9c-0.3-0.2-1.3-0.2-3-0.2c-0.2,0-0.5,0-0.9,0.1c0,0.3-0.1,0.6-0.1,1l0,3c0,0.5,0.1,0.9,0.2,1
						c0.1,0.1,0.3,0.2,0.7,0.2l0.2,0c0.3,0,0.6,0.1,0.8,0.1l0.3,0.1c0,0.2,0,0.3,0,0.4c0,0.1,0,0.2,0,0.4l-0.2,0l-0.3,0l-1.4-0.1
						c-0.2,0-0.9,0-2.2,0c-0.4,0-0.7,0-1,0.1c-0.5,0.1-0.8,0.1-0.9,0.1C7.3,39.7,7,39.7,6.9,39.7z"/>
					<path fill="#FFFFFF" d="M20,39.6v-0.7c0.1,0,0.3-0.1,0.7-0.2c0.4-0.1,0.7-0.2,1-0.3c0.1-0.2,0.2-0.5,0.2-0.9l0-1.2l0-2.3l0-0.5
						c0.1-1.3,0.1-2,0.1-2l0-1.3l0-0.5l0-1.1l0-0.4c0-0.1,0-0.2-0.1-0.3c-0.3-0.1-0.7-0.2-1.3-0.2c-0.1,0-0.3,0-0.3,0l0-0.9l2.8,0.1
						c0.4,0,0.6,0,0.7,0c0.4,0,1,0,1.9-0.1c0.5,0,0.8-0.1,0.9-0.1c0,0.1,0,0.2,0,0.3c0,0.1,0,0.3,0,0.4c-0.3,0.1-0.6,0.2-0.9,0.3
						c-0.3,0.1-0.6,0.2-0.8,0.3c0,0.2-0.1,0.4-0.1,0.7c0,0.3,0,0.5,0,0.7c0,1.1,0,2,0,2.6l0,2.6l0,1.3l0,2l0,0.4
						c0,0.1,0,0.1,0.1,0.2c0.4,0.1,0.8,0.1,1.1,0.2c0.1,0,0.3,0,0.6,0.1c0,0.2,0,0.4,0,0.5c0,0.1,0,0.2,0,0.3c-0.1,0-0.2,0-0.2,0
						c-0.2,0-0.3,0-0.4,0c0,0-0.1,0-0.3,0c-0.1,0-0.5-0.1-1.3-0.1l-1.8,0c-0.4,0-0.9,0-1.5,0.1C20.4,39.6,20.2,39.6,20,39.6z"/>
					<path fill="#FFFFFF" d="M28.5,39c0.2-0.1,0.4-0.2,0.8-0.2c0.3,0,0.6-0.1,0.9-0.2c0-0.1,0.1-0.2,0.1-0.3c0-0.1,0-0.4,0-1l0-2.2
						l0-1.2l0-0.9l0-0.5c0-0.7,0-1.4,0-2c0-1.4,0-2.3,0-2.6l-0.6-0.1c-0.5,0-0.9-0.1-1.1-0.1l0-0.6l0-0.1c0.3-0.1,0.6-0.1,0.9-0.1
						c0.2,0,0.5,0,0.9,0c0.5,0,0.7,0.1,0.8,0.1l0.5,0l1.2-0.1c0.8-0.1,1.6-0.1,2.5-0.1c1.4,0,2.4,0.3,3.2,1c0.8,0.7,1.2,1.5,1.2,2.4
						c0,0.7-0.2,1.3-0.6,1.8c-0.4,0.5-1.1,1-2,1.2c0.1,0.1,0.2,0.3,0.3,0.5c0.3,0.4,0.5,0.7,0.7,1l1.6,2.6c0.4,0.7,0.7,1.1,0.8,1.2
						c0.1,0.1,0.4,0.2,0.8,0.4c0.3,0.1,0.5,0.2,0.7,0.3c0,0.1,0.1,0.2,0.1,0.3c0,0.1,0,0.1,0,0.2h-0.3l-0.2,0l-0.5-0.1h-0.4
						c-0.2,0-0.5,0-0.8,0l-1,0c-0.1,0-0.3,0-0.7,0.1c-0.2,0-0.3,0-0.4,0L37.5,39c-0.3-0.5-0.5-0.9-0.6-1.1c-0.3-0.6-0.8-1.7-1.5-3.1
						c-0.3-0.6-0.6-1-0.7-1.1c-0.2-0.1-0.5-0.2-1-0.2c-0.1,0-0.4,0-0.7,0c0,0.2,0,0.4,0,0.7l0,2.2L33,38.3c0.2,0.1,0.4,0.2,0.7,0.3
						c0.5,0.1,1,0.2,1.3,0.4c0,0.3,0,0.6,0,0.7c-0.1,0-0.2,0-0.2,0l-0.4,0c-1.4-0.1-2.3-0.2-2.5-0.2c-0.2,0-0.3,0-0.4,0l-1.4,0.1
						c-0.4,0-0.8,0.1-1.1,0.1h-0.4c0-0.2,0-0.3,0-0.3C28.5,39.2,28.5,39.1,28.5,39z M33,32.6c0.3,0,0.6,0,0.7,0
						c1.1,0,1.9-0.2,2.4-0.6c0.5-0.4,0.7-0.9,0.7-1.6c0-0.4-0.1-0.8-0.2-1.2c-0.1-0.4-0.3-0.6-0.4-0.8c-0.2-0.3-0.6-0.5-1-0.6
						c-0.3-0.1-0.8-0.1-1.4-0.1c-0.3,0-0.6,0-0.8,0l0,0.2l0,1.3l0,0.8l0,1.1c0,0.3,0,0.7,0,1.2V32.6z"/>
					<path fill="#FFFFFF" d="M42.7,26.7c0.4,0,0.7,0,1,0.1c0.5,0.1,1.1,0.1,1.8,0.1c0.2,0,0.9,0,1.8-0.1c1.5-0.1,2.8-0.1,4-0.1
						l1.8,0c0.4,0,1,0,1.8,0.1c0.1,0.1,0.2,0.3,0.2,0.5v2l0,0.4c0,0,0,0.1,0,0.2l-0.4,0c-0.1,0-0.2,0-0.3,0
						c-0.1-0.1-0.1-0.3-0.2-0.6l-0.4-0.7c-0.2-0.3-0.4-0.6-0.6-0.9c-0.2,0-0.4-0.1-0.6-0.1c-0.1,0-0.3,0-0.6,0
						c-0.6-0.1-1.3-0.1-2-0.1c-0.8,0-1.5,0-2.2,0c0,0.2,0,0.8,0,2l0,1.7v1.3c0.2,0,0.3,0,0.4,0c1.2,0,2,0,2.5-0.1
						c0.5,0,0.8-0.1,0.9-0.2c0.1-0.1,0.2-0.2,0.3-0.4c0.1-0.1,0.2-0.6,0.3-1.5l0.1,0l0.6,0c0,0.6,0,1,0,1.3c0,0.7,0,1.1,0,1.3
						c0,0.2,0,0.4,0,0.5c0,0.2,0,0.5,0,0.9c0,0.4,0,0.7,0,0.9v0.2h-0.7c0-0.1-0.1-0.3-0.1-0.7c-0.1-0.6-0.3-1-0.4-1.2
						c-0.1-0.1-0.2-0.2-0.4-0.3c-0.1,0-0.6-0.1-1.5-0.1c-1,0-1.8,0-2.3,0.1c0,0.2,0,0.3,0,0.3c0,0.8,0,1.4,0,2l0,2.1
						c0,0.3,0.1,0.4,0.3,0.5c0.3,0.1,1.1,0.2,2.5,0.2c0.9,0,1.7-0.1,2.3-0.2c0.4-0.1,0.8-0.3,1.2-0.7c0.5-0.4,0.8-1.1,1.1-1.9
						c0.2,0,0.4,0,0.5,0c0.1,0,0.2,0,0.3,0c0,0.2,0,0.3,0,0.4l-0.1,0.3l-0.4,1.9l-0.2,1.1c-0.4,0-0.8,0-1,0c-0.4,0-1.4,0-3-0.1
						c-1.1,0-2.5-0.1-4.1-0.1c-0.8,0-1.8,0-2.9,0.1h-0.4l-1.2,0V39c0.1,0,0.4-0.1,0.8-0.1c0.7-0.1,1.2-0.2,1.4-0.3
						c0.1-0.2,0.1-0.4,0.1-0.7c0-0.1,0-0.3,0-0.6l0-0.3l0-3.7l0-1.1l0-1.6l0-1.1l-0.1-1.2c0,0,0-0.1,0-0.2c-0.1-0.1-0.2-0.1-0.3-0.1
						c-0.1,0-0.2,0-0.3-0.1c-0.4-0.1-0.7-0.1-1.1-0.1c-0.1,0-0.3,0-0.4,0L42.7,26.7z"/>
				</g>
			</g>
			<path fill="#FFFFFF" d="M53.9,23c0.1,0,0.1-0.1,0.2-0.1c0.1,0.2-0.2,0.1-0.2,0.3c-0.2,0-0.2,0-0.3-0.1c-0.1,0,0,0.1,0,0.1
				c0,0,0,0,0-0.1c0,0.1-0.1,0.3-0.1,0.4c-0.1,0.6,0,1.2,0.3,1.7c0,0,0.1,0,0.2,0c0.1,0.2,0.3,0.2,0.4,0.3c0,0.1,0,0.1-0.1,0
				c0,0,0.1,0.1,0,0.1c0,0.1,0,0.1,0,0.2c0,0,0.1,0.1,0.1,0.1c0,0,0,0,0.1,0c0,0,0,0,0,0c0.3,0.2,0.6,0.4,1,0.4c0.2,0,0.3,0,0.5,0
				c1.2,0,2.2-0.8,2.4-2c0.1-0.6,0-1.3-0.4-1.8c-0.4-0.5-0.9-0.9-1.6-1c-0.2,0-0.3,0-0.5,0c-0.9,0-1.7,0.5-2.1,1.2
				C53.8,22.8,53.8,22.9,53.9,23 M53.6,23.4C53.6,23.4,53.7,23.4,53.6,23.4C53.6,23.5,53.5,23.3,53.6,23.4
				C53.7,23.3,53.7,23.4,53.6,23.4 M54.7,26C54.7,26,54.8,26,54.7,26C54.7,26,54.7,26,54.7,26c-0.1-0.1,0-0.1,0-0.1
				C54.8,25.9,54.8,26,54.7,26 M58,23.2c0.2,0,0.2,0.3,0.1,0.4C57.9,23.6,57.9,23.4,58,23.2 M57.7,23.4c0,0.1,0.2,0.1,0.1,0.2
				c-0.1,0-0.1-0.1-0.1,0C57.6,23.6,57.8,23.5,57.7,23.4C57.6,23.5,57.6,23.4,57.7,23.4 M56.9,22.2c0.1,0,0,0.2,0,0.2
				c0,0,0-0.1-0.1,0C56.8,22.3,56.9,22.3,56.9,22.2 M55.8,22.4c0.1,0,0.2,0,0.3,0c0.4,0.1,0.8,0.3,1,0.7c0.2,0.4,0.3,0.8,0.2,1.2
				c-0.2,0.8-0.8,1.3-1.6,1.3c-0.1,0-0.2,0-0.3,0c-0.9-0.2-1.5-1-1.3-1.9C54.3,23,55,22.4,55.8,22.4"/>
		</g>
		<path fill="#CE2327" d="M47.8,13.9c0,0.1,0,0.8,0,0.8c0,0-0.2-0.1-0.3-0.2c-0.1-0.2-0.1-0.2-0.3-0.2c-0.1,0.1,0,0.6,0.1,0.7
			c0.1,0.2,0.1,0.4,0.1,0.5c0,0.1-0.2,0.1-0.4-0.1c-0.2-0.2-0.4-0.6-0.5-0.5c-0.2,0.2,0,0.6,0.2,0.8c0.1,0.2,0.4,0.5,0.3,0.6
			c0,0.1-0.1,0.2-0.3,0c-0.2-0.2-0.7-0.7-0.9-0.4c-0.2,0.2,0.2,0.6,0.4,1c0.2,0.4,0.2,0.4,0,0.5c-0.1,0.1-0.4-0.3-0.6-0.6
			c-0.3-0.3-0.4-0.3-0.5-0.2c-0.1,0.1-0.1,0.3,0.1,0.4c0.1,0.2,0.7,0.7,0.5,0.8c-0.3,0.1-0.6-0.5-0.8-0.7c-0.2-0.2-0.3-0.1-0.4,0
			c-0.1,0.1,0.2,0.3,0.4,0.7c0.2,0.4-0.1,0.4-0.3,0.4c-0.1,0-0.5-0.7-0.6-0.6c-0.1,0.1,0.2,0.7,0.1,0.9c0,0.2-0.1,0.4-0.1,0.4
			c0,0.1-0.4,0-0.4,0c-0.1-0.1-0.4-0.6-0.5-0.5c-0.1,0.1-0.1,0.2,0.1,0.6c0.2,0.4,0,0.3-0.2,0.1c-0.2-0.3-0.9-1.1-1.1-0.9
			c-0.1,0.2,0.7,1.2,0.7,1.3c0,0.1-0.1,0.1-0.1,0.1c-0.1,0-1-1.2-1.1-1.2c-0.2,0.1-0.1,0.2-0.1,0.2c0,0,0.7,1,0.8,1.1
			c0.1,0.1,0.1,0.3-0.1,0.2c-0.2-0.1-0.9-0.8-1-0.7c-0.1,0,0.4,0.9,0.3,1c-0.1,0.1-0.5-0.6-0.6-0.8c-0.1-0.2-0.6-1.3-0.8-1.2
			c-0.4,0.1,0.2,1.1,0.2,1.7c-0.3,0-0.7-0.5-0.7-0.5c-0.2-0.5,0.1-1.5,0.1-1.5c-0.2-0.2,0.2-0.7,0.2-0.7s-0.6,0.5-0.8,0.8
			c-0.3,0.4-0.2,3.2,0.1,4.2c0.3,1,2.8,2.2,3.6,2.2c0.8,0,3-3.8,3.4-4.2c0.9-1,1.8-4.2,2.5-6.1c0.4-0.9,0.8-3.3,0.9-4.1
			c-0.2,0.9-1.3,3.6-1.4,3.6C48.2,14,47.8,13.8,47.8,13.9z"/>
		<path fill="#CE2327" d="M17.4,20.5c0.4,0.4,2.6,4.2,3.4,4.2c0.8,0,3.4-1.2,3.6-2.2c0.3-1,0.4-3.8,0.1-4.2
			c-0.3-0.4-0.8-0.8-0.8-0.8s0.4,0.5,0.2,0.7c0,0,0.4,1,0.1,1.5c0,0-0.4,0.5-0.7,0.5c0-0.6,0.6-1.6,0.2-1.7
			c-0.2-0.1-0.7,0.9-0.8,1.2c-0.1,0.2-0.5,0.9-0.6,0.8c-0.1-0.1,0.4-1,0.3-1c-0.1-0.1-0.8,0.6-1,0.7c-0.2,0.1-0.2-0.1-0.1-0.2
			c0.1-0.1,0.8-1.1,0.8-1.1c0,0,0.1-0.1-0.1-0.2c-0.1-0.1-1,1.1-1.1,1.2c-0.1,0-0.1,0-0.1-0.1c0-0.1,0.8-1.1,0.7-1.3
			c-0.2-0.2-0.9,0.6-1.1,0.9c-0.2,0.2-0.4,0.3-0.2-0.1c0.2-0.4,0.2-0.5,0.1-0.6c-0.1-0.1-0.4,0.4-0.5,0.5c-0.1,0-0.4,0.1-0.5,0
			c0,0,0-0.3-0.1-0.4c0-0.2,0.3-0.8,0.1-0.9c-0.1-0.1-0.6,0.6-0.6,0.6c-0.1,0-0.5,0-0.3-0.4c0.3-0.4,0.5-0.6,0.4-0.7
			c-0.1-0.1-0.1-0.3-0.4,0c-0.2,0.2-0.5,0.9-0.8,0.7c-0.2-0.1,0.4-0.7,0.5-0.8c0.1-0.2,0.2-0.3,0-0.4c-0.1-0.1-0.2-0.1-0.5,0.2
			c-0.2,0.3-0.5,0.7-0.6,0.6c-0.1-0.1-0.2-0.1,0-0.5c0.3-0.4,0.6-0.8,0.4-1c-0.2-0.2-0.6,0.3-0.9,0.4c-0.2,0.2-0.3,0.1-0.3,0
			c0-0.1,0.2-0.4,0.3-0.6c0.1-0.2,0.4-0.7,0.2-0.8c-0.2-0.1-0.4,0.3-0.6,0.5c-0.2,0.1-0.4,0.2-0.4,0.1c0-0.1,0-0.3,0.2-0.5
			c0.1-0.2,0.3-0.7,0.1-0.7c-0.2-0.1-0.2,0-0.3,0.2c-0.1,0.2-0.2,0.3-0.3,0.2c0,0,0-0.7,0-0.8c0-0.1-0.5,0.1-0.6,0
			c-0.1-0.1-1.2-2.8-1.4-3.6c0.1,0.8,0.5,3.2,0.9,4.1C15.7,16.3,16.5,19.5,17.4,20.5z"/>
	</g>
</g>
<g id="Layer_2">
</g>
</svg>
